<svg xmlns="http://www.w3.org/2000/svg" viewBox="0 0 1000 1000" width="1024" height="1024">

    <defs>
      <radialGradient id="haloGlow" cx="50%" cy="50%" r="50%">
        <stop offset="0%" stop-color="#FB7185" stop-opacity="0.225"></stop>
        <stop offset="35%" stop-color="#E11D7D" stop-opacity="0.081"></stop>
        <stop offset="100%" stop-color="#E11D7D" stop-opacity="0"></stop>
      </radialGradient>
      <radialGradient id="dotGrad" cx="50%" cy="50%" r="50%">
        <stop offset="0%" stop-color="#FECDD3"></stop>
        <stop offset="55%" stop-color="#FB7185"></stop>
        <stop offset="100%" stop-color="#E11D7D"></stop>
      </radialGradient>
      <radialGradient id="coreGlow" cx="50%" cy="50%" r="50%">
        <stop offset="0%" stop-color="#FECDD3" stop-opacity="0.55"></stop>
        <stop offset="55%" stop-color="#FB7185" stop-opacity="0.18"></stop>
        <stop offset="100%" stop-color="#E11D7D" stop-opacity="0"></stop>
      </radialGradient>
    </defs>
  

<circle cx="500" cy="500" r="329" fill="url(#coreGlow)" opacity="0.85"></circle>
<g><circle cx="525.10" cy="538.58" r="1.50" fill="url(#dotGrad)" opacity="0.081"></circle><circle cx="426.39" cy="491.05" r="1.50" fill="url(#dotGrad)" opacity="0.083"></circle><circle cx="487.46" cy="413.47" r="1.51" fill="url(#dotGrad)" opacity="0.084"></circle><circle cx="587.82" cy="462.18" r="1.51" fill="url(#dotGrad)" opacity="0.085"></circle><circle cx="467.56" cy="619.92" r="1.52" fill="url(#dotGrad)" opacity="0.088"></circle><circle cx="372.81" cy="573.08" r="1.53" fill="url(#dotGrad)" opacity="0.091"></circle><circle cx="616.01" cy="591.77" r="1.53" fill="url(#dotGrad)" opacity="0.091"></circle><circle cx="549.81" cy="340.41" r="1.54" fill="url(#dotGrad)" opacity="0.095"></circle><circle cx="387.11" cy="370.56" r="1.55" fill="url(#dotGrad)" opacity="0.096"></circle><circle cx="327.85" cy="449.35" r="1.55" fill="url(#dotGrad)" opacity="0.097"></circle><circle cx="553.81" cy="672.61" r="1.55" fill="url(#dotGrad)" opacity="0.097"></circle><circle cx="680.45" cy="516.45" r="1.55" fill="url(#dotGrad)" opacity="0.097"></circle><circle cx="649.33" cy="390.39" r="1.56" fill="url(#dotGrad)" opacity="0.098"></circle><circle cx="450.05" cy="296.24" r="1.58" fill="url(#dotGrad)" opacity="0.104"></circle><circle cx="422.70" cy="706.57" r="1.59" fill="url(#dotGrad)" opacity="0.106"></circle><circle cx="278.13" cy="532.21" r="1.60" fill="url(#dotGrad)" opacity="0.107"></circle><circle cx="333.55" cy="659.44" r="1.61" fill="url(#dotGrad)" opacity="0.109"></circle><circle cx="691.36" cy="649.92" r="1.63" fill="url(#dotGrad)" opacity="0.112"></circle><circle cx="740.94" cy="445.90" r="1.63" fill="url(#dotGrad)" opacity="0.114"></circle><circle cx="607.28" cy="271.84" r="1.64" fill="url(#dotGrad)" opacity="0.115"></circle><circle cx="501.59" cy="760.20" r="1.65" fill="url(#dotGrad)" opacity="0.118"></circle><circle cx="622.71" cy="730.60" r="1.66" fill="url(#dotGrad)" opacity="0.118"></circle><circle cx="294.45" cy="333.20" r="1.66" fill="url(#dotGrad)" opacity="0.119"></circle><circle cx="758.13" cy="575.59" r="1.67" fill="url(#dotGrad)" opacity="0.120"></circle><circle cx="703.73" cy="322.85" r="1.67" fill="url(#dotGrad)" opacity="0.121"></circle><circle cx="510.56" cy="226.72" r="1.68" fill="url(#dotGrad)" opacity="0.122"></circle><circle cx="237.24" cy="413.19" r="1.69" fill="url(#dotGrad)" opacity="0.123"></circle><circle cx="357.92" cy="257.68" r="1.70" fill="url(#dotGrad)" opacity="0.125"></circle><circle cx="243.90" cy="618.64" r="1.70" fill="url(#dotGrad)" opacity="0.125"></circle><circle cx="191.56" cy="496.94" r="1.77" fill="url(#dotGrad)" opacity="0.135"></circle><circle cx="317.25" cy="750.08" r="1.77" fill="url(#dotGrad)" opacity="0.136"></circle><circle cx="401.21" cy="799.56" r="1.79" fill="url(#dotGrad)" opacity="0.138"></circle><circle cx="792.03" cy="379.42" r="1.79" fill="url(#dotGrad)" opacity="0.138"></circle><circle cx="817.61" cy="506.22" r="1.79" fill="url(#dotGrad)" opacity="0.139"></circle><circle cx="421.83" cy="187.34" r="1.81" fill="url(#dotGrad)" opacity="0.141"></circle><circle cx="744.06" cy="711.92" r="1.81" fill="url(#dotGrad)" opacity="0.142"></circle><circle cx="558.69" cy="820.28" r="1.82" fill="url(#dotGrad)" opacity="0.143"></circle><circle cx="653.40" cy="207.64" r="1.83" fill="url(#dotGrad)" opacity="0.145"></circle><circle cx="665.02" cy="792.87" r="1.85" fill="url(#dotGrad)" opacity="0.148"></circle><circle cx="231.97" cy="708.06" r="1.86" fill="url(#dotGrad)" opacity="0.149"></circle><circle cx="561.71" cy="162.31" r="1.88" fill="url(#dotGrad)" opacity="0.151"></circle><circle cx="745.16" cy="259.10" r="1.88" fill="url(#dotGrad)" opacity="0.152"></circle><circle cx="814.61" cy="638.44" r="1.88" fill="url(#dotGrad)" opacity="0.152"></circle><circle cx="216.59" cy="300.68" r="1.89" fill="url(#dotGrad)" opacity="0.153"></circle><circle cx="162.38" cy="583.65" r="1.90" fill="url(#dotGrad)" opacity="0.154"></circle><circle cx="280.89" cy="224.04" r="1.92" fill="url(#dotGrad)" opacity="0.156"></circle><circle cx="161.55" cy="381.82" r="1.94" fill="url(#dotGrad)" opacity="0.159"></circle><circle cx="471.78" cy="858.02" r="1.94" fill="url(#dotGrad)" opacity="0.160"></circle><circle cx="865.20" cy="440.76" r="1.99" fill="url(#dotGrad)" opacity="0.166"></circle><circle cx="828.69" cy="316.24" r="2.03" fill="url(#dotGrad)" opacity="0.170"></circle><circle cx="479.26" cy="123.12" r="2.03" fill="url(#dotGrad)" opacity="0.171"></circle><circle cx="349.39" cy="153.10" r="2.04" fill="url(#dotGrad)" opacity="0.171"></circle><circle cx="873.53" cy="570.19" r="2.05" fill="url(#dotGrad)" opacity="0.173"></circle><circle cx="120.15" cy="466.45" r="2.05" fill="url(#dotGrad)" opacity="0.173"></circle><circle cx="339.23" cy="845.79" r="2.05" fill="url(#dotGrad)" opacity="0.173"></circle><circle cx="767.79" cy="776.19" r="2.07" fill="url(#dotGrad)" opacity="0.176"></circle><circle cx="154.85" cy="672.41" r="2.08" fill="url(#dotGrad)" opacity="0.177"></circle><circle cx="252.20" cy="799.91" r="2.10" fill="url(#dotGrad)" opacity="0.179"></circle><circle cx="576.76" cy="887.46" r="2.14" fill="url(#dotGrad)" opacity="0.183"></circle><circle cx="680.56" cy="147.69" r="2.14" fill="url(#dotGrad)" opacity="0.184"></circle><circle cx="669.44" cy="858.12" r="2.14" fill="url(#dotGrad)" opacity="0.184"></circle><circle cx="845.05" cy="703.50" r="2.17" fill="url(#dotGrad)" opacity="0.187"></circle><circle cx="767.35" cy="198.57" r="2.19" fill="url(#dotGrad)" opacity="0.189"></circle><circle cx="96.26" cy="553.53" r="2.22" fill="url(#dotGrad)" opacity="0.193"></circle><circle cx="594.65" cy="103.63" r="2.22" fill="url(#dotGrad)" opacity="0.193"></circle><circle cx="159.60" cy="271.88" r="2.24" fill="url(#dotGrad)" opacity="0.195"></circle><circle cx="429.74" cy="904.36" r="2.24" fill="url(#dotGrad)" opacity="0.195"></circle><circle cx="225.63" cy="194.20" r="2.25" fill="url(#dotGrad)" opacity="0.196"></circle><circle cx="896.83" cy="378.19" r="2.28" fill="url(#dotGrad)" opacity="0.199"></circle><circle cx="175.36" cy="762.17" r="2.30" fill="url(#dotGrad)" opacity="0.201"></circle><circle cx="917.58" cy="505.71" r="2.30" fill="url(#dotGrad)" opacity="0.202"></circle><circle cx="416.10" cy="89.69" r="2.31" fill="url(#dotGrad)" opacity="0.203"></circle><circle cx="106.53" cy="354.12" r="2.32" fill="url(#dotGrad)" opacity="0.204"></circle><circle cx="845.92" cy="255.50" r="2.36" fill="url(#dotGrad)" opacity="0.208"></circle><circle cx="301.30" cy="122.88" r="2.38" fill="url(#dotGrad)" opacity="0.210"></circle><circle cx="756.44" cy="840.73" r="2.38" fill="url(#dotGrad)" opacity="0.210"></circle><circle cx="904.43" cy="636.35" r="2.39" fill="url(#dotGrad)" opacity="0.211"></circle><circle cx="329.04" cy="894.55" r="2.42" fill="url(#dotGrad)" opacity="0.214"></circle><circle cx="93.52" cy="641.94" r="2.42" fill="url(#dotGrad)" opacity="0.215"></circle><circle cx="520.55" cy="67.02" r="2.46" fill="url(#dotGrad)" opacity="0.218"></circle><circle cx="507.19" cy="933.70" r="2.46" fill="url(#dotGrad)" opacity="0.218"></circle><circle cx="69.53" cy="439.58" r="2.47" fill="url(#dotGrad)" opacity="0.219"></circle><circle cx="846.20" cy="768.91" r="2.51" fill="url(#dotGrad)" opacity="0.224"></circle><circle cx="609.13" cy="925.81" r="2.53" fill="url(#dotGrad)" opacity="0.225"></circle><circle cx="235.54" cy="851.71" r="2.53" fill="url(#dotGrad)" opacity="0.226"></circle><circle cx="677.50" cy="92.24" r="2.60" fill="url(#dotGrad)" opacity="0.232"></circle><circle cx="762.23" cy="140.66" r="2.60" fill="url(#dotGrad)" opacity="0.232"></circle><circle cx="943.98" cy="443.72" r="2.64" fill="url(#dotGrad)" opacity="0.236"></circle><circle cx="908.84" cy="317.43" r="2.64" fill="url(#dotGrad)" opacity="0.237"></circle><circle cx="115.79" cy="730.41" r="2.64" fill="url(#dotGrad)" opacity="0.237"></circle><circle cx="51.20" cy="527.03" r="2.67" fill="url(#dotGrad)" opacity="0.239"></circle><circle cx="197.69" cy="166.61" r="2.68" fill="url(#dotGrad)" opacity="0.240"></circle><circle cx="700.46" cy="903.01" r="2.68" fill="url(#dotGrad)" opacity="0.240"></circle><circle cx="128.02" cy="245.29" r="2.69" fill="url(#dotGrad)" opacity="0.241"></circle><circle cx="945.23" cy="572.80" r="2.70" fill="url(#dotGrad)" opacity="0.242"></circle><circle cx="384.43" cy="61.46" r="2.74" fill="url(#dotGrad)" opacity="0.246"></circle><circle cx="838.12" cy="196.21" r="2.76" fill="url(#dotGrad)" opacity="0.248"></circle><circle cx="385.86" cy="940.10" r="2.76" fill="url(#dotGrad)" opacity="0.248"></circle><circle cx="907.98" cy="702.97" r="2.78" fill="url(#dotGrad)" opacity="0.250"></circle><circle cx="593.44" cy="53.02" r="2.80" fill="url(#dotGrad)" opacity="0.252"></circle><circle cx="76.31" cy="328.60" r="2.81" fill="url(#dotGrad)" opacity="0.253"></circle><circle cx="285.87" cy="95.18" r="2.83" fill="url(#dotGrad)" opacity="0.254"></circle><circle cx="500.00" cy="958.67" r="2.84" fill="url(#dotGrad)" opacity="0.256"></circle><circle cx="168.82" cy="817.38" r="2.84" fill="url(#dotGrad)" opacity="0.256"></circle><circle cx="816.35" cy="832.53" r="2.85" fill="url(#dotGrad)" opacity="0.257"></circle><circle cx="53.69" cy="615.20" r="2.90" fill="url(#dotGrad)" opacity="0.261"></circle><circle cx="473.37" cy="39.33" r="2.91" fill="url(#dotGrad)" opacity="0.262"></circle><circle cx="267.41" cy="900.56" r="2.96" fill="url(#dotGrad)" opacity="0.267"></circle><circle cx="43.60" cy="414.85" r="3.00" fill="url(#dotGrad)" opacity="0.270"></circle><circle cx="950.41" cy="382.99" r="3.03" fill="url(#dotGrad)" opacity="0.273"></circle><circle cx="457.01" cy="963.72" r="3.05" fill="url(#dotGrad)" opacity="0.275"></circle><circle cx="897.56" cy="257.27" r="3.05" fill="url(#dotGrad)" opacity="0.275"></circle><circle cx="966.35" cy="511.35" r="3.08" fill="url(#dotGrad)" opacity="0.278"></circle><circle cx="754.29" cy="891.76" r="3.10" fill="url(#dotGrad)" opacity="0.280"></circle><circle cx="714.82" cy="85.09" r="3.11" fill="url(#dotGrad)" opacity="0.281"></circle><circle cx="78.89" cy="702.76" r="3.12" fill="url(#dotGrad)" opacity="0.281"></circle><circle cx="946.20" cy="640.37" r="3.14" fill="url(#dotGrad)" opacity="0.283"></circle><circle cx="652.77" cy="942.51" r="3.16" fill="url(#dotGrad)" opacity="0.285"></circle><circle cx="201.50" cy="139.32" r="3.17" fill="url(#dotGrad)" opacity="0.285"></circle><circle cx="883.93" cy="768.15" r="3.17" fill="url(#dotGrad)" opacity="0.286"></circle><circle cx="796.84" cy="137.20" r="3.20" fill="url(#dotGrad)" opacity="0.289"></circle><circle cx="124.66" cy="219.13" r="3.21" fill="url(#dotGrad)" opacity="0.289"></circle><circle cx="340.87" cy="941.13" r="3.22" fill="url(#dotGrad)" opacity="0.290"></circle><circle cx="30.96" cy="502.62" r="3.23" fill="url(#dotGrad)" opacity="0.291"></circle><circle cx="561.20" cy="965.47" r="3.27" fill="url(#dotGrad)" opacity="0.294"></circle><circle cx="613.89" cy="44.33" r="3.30" fill="url(#dotGrad)" opacity="0.297"></circle><circle cx="129.06" cy="788.13" r="3.30" fill="url(#dotGrad)" opacity="0.297"></circle><circle cx="314.82" cy="68.14" r="3.34" fill="url(#dotGrad)" opacity="0.300"></circle><circle cx="408.10" cy="39.13" r="3.35" fill="url(#dotGrad)" opacity="0.302"></circle><circle cx="73.04" cy="303.58" r="3.37" fill="url(#dotGrad)" opacity="0.302"></circle><circle cx="209.12" cy="869.15" r="3.37" fill="url(#dotGrad)" opacity="0.303"></circle><circle cx="520.89" cy="30.48" r="3.42" fill="url(#dotGrad)" opacity="0.455"></circle><circle cx="934.92" cy="322.22" r="3.46" fill="url(#dotGrad)" opacity="0.463"></circle><circle cx="858.44" cy="196.31" r="3.47" fill="url(#dotGrad)" opacity="0.466"></circle><circle cx="39.03" cy="590.58" r="3.48" fill="url(#dotGrad)" opacity="0.466"></circle><circle cx="834.16" cy="829.90" r="3.51" fill="url(#dotGrad)" opacity="0.472"></circle><circle cx="966.96" cy="450.63" r="3.51" fill="url(#dotGrad)" opacity="0.473"></circle><circle cx="962.22" cy="579.41" r="3.57" fill="url(#dotGrad)" opacity="0.484"></circle><circle cx="920.73" cy="706.66" r="3.59" fill="url(#dotGrad)" opacity="0.488"></circle><circle cx="44.22" cy="390.60" r="3.59" fill="url(#dotGrad)" opacity="0.489"></circle><circle cx="463.29" cy="967.22" r="3.60" fill="url(#dotGrad)" opacity="0.490"></circle><circle cx="241.41" cy="109.97" r="3.65" fill="url(#dotGrad)" opacity="0.499"></circle><circle cx="699.91" cy="77.23" r="3.66" fill="url(#dotGrad)" opacity="0.502"></circle><circle cx="673.04" cy="933.83" r="3.70" fill="url(#dotGrad)" opacity="0.509"></circle><circle cx="68.01" cy="677.38" r="3.70" fill="url(#dotGrad)" opacity="0.509"></circle><circle cx="762.38" cy="886.05" r="3.71" fill="url(#dotGrad)" opacity="0.511"></circle><circle cx="150.37" cy="191.39" r="3.73" fill="url(#dotGrad)" opacity="0.515"></circle><circle cx="284.88" cy="913.41" r="3.75" fill="url(#dotGrad)" opacity="0.518"></circle><circle cx="377.75" cy="947.03" r="3.85" fill="url(#dotGrad)" opacity="0.537"></circle><circle cx="782.46" cy="132.67" r="3.85" fill="url(#dotGrad)" opacity="0.538"></circle><circle cx="37.20" cy="478.65" r="3.86" fill="url(#dotGrad)" opacity="0.538"></circle><circle cx="117.82" cy="761.53" r="3.86" fill="url(#dotGrad)" opacity="0.540"></circle><circle cx="895.59" cy="259.95" r="3.88" fill="url(#dotGrad)" opacity="0.542"></circle><circle cx="556.73" cy="959.18" r="3.88" fill="url(#dotGrad)" opacity="0.542"></circle><circle cx="444.25" cy="41.15" r="3.89" fill="url(#dotGrad)" opacity="0.545"></circle><circle cx="188.81" cy="841.22" r="3.91" fill="url(#dotGrad)" opacity="0.548"></circle><circle cx="96.76" cy="277.23" r="3.94" fill="url(#dotGrad)" opacity="0.554"></circle><circle cx="946.70" cy="389.32" r="3.95" fill="url(#dotGrad)" opacity="0.557"></circle><circle cx="871.27" cy="769.91" r="3.99" fill="url(#dotGrad)" opacity="0.563"></circle><circle cx="500.00" cy="41.33" r="4.00" fill="url(#dotGrad)" opacity="0.565"></circle><circle cx="328.09" cy="75.21" r="4.01" fill="url(#dotGrad)" opacity="0.567"></circle><circle cx="956.95" cy="518.66" r="4.03" fill="url(#dotGrad)" opacity="0.571"></circle><circle cx="932.07" cy="646.21" r="4.06" fill="url(#dotGrad)" opacity="0.577"></circle><circle cx="628.38" cy="62.46" r="4.07" fill="url(#dotGrad)" opacity="0.577"></circle><circle cx="51.02" cy="566.35" r="4.12" fill="url(#dotGrad)" opacity="0.586"></circle><circle cx="204.43" cy="159.80" r="4.19" fill="url(#dotGrad)" opacity="0.599"></circle><circle cx="71.09" cy="365.12" r="4.21" fill="url(#dotGrad)" opacity="0.603"></circle><circle cx="829.19" cy="194.35" r="4.22" fill="url(#dotGrad)" opacity="0.604"></circle><circle cx="802.47" cy="828.47" r="4.27" fill="url(#dotGrad)" opacity="0.614"></circle><circle cx="635.51" cy="925.28" r="4.27" fill="url(#dotGrad)" opacity="0.614"></circle><circle cx="488.68" cy="944.80" r="4.30" fill="url(#dotGrad)" opacity="0.619"></circle><circle cx="281.77" cy="886.19" r="4.33" fill="url(#dotGrad)" opacity="0.624"></circle><circle cx="84.31" cy="652.41" r="4.34" fill="url(#dotGrad)" opacity="0.626"></circle><circle cx="905.61" cy="326.01" r="4.37" fill="url(#dotGrad)" opacity="0.630"></circle><circle cx="721.00" cy="880.79" r="4.38" fill="url(#dotGrad)" opacity="0.634"></circle><circle cx="405.66" cy="70.19" r="4.39" fill="url(#dotGrad)" opacity="0.634"></circle><circle cx="725.51" cy="122.38" r="4.39" fill="url(#dotGrad)" opacity="0.635"></circle><circle cx="541.77" cy="63.88" r="4.42" fill="url(#dotGrad)" opacity="0.640"></circle><circle cx="145.27" cy="247.69" r="4.47" fill="url(#dotGrad)" opacity="0.648"></circle><circle cx="389.11" cy="920.87" r="4.47" fill="url(#dotGrad)" opacity="0.648"></circle><circle cx="285.91" cy="121.49" r="4.47" fill="url(#dotGrad)" opacity="0.649"></circle><circle cx="135.25" cy="735.50" r="4.48" fill="url(#dotGrad)" opacity="0.651"></circle><circle cx="931.59" cy="456.80" r="4.49" fill="url(#dotGrad)" opacity="0.652"></circle><circle cx="201.69" cy="814.12" r="4.50" fill="url(#dotGrad)" opacity="0.654"></circle><circle cx="69.41" cy="453.43" r="4.50" fill="url(#dotGrad)" opacity="0.654"></circle><circle cx="878.55" cy="710.11" r="4.50" fill="url(#dotGrad)" opacity="0.654"></circle><circle cx="921.06" cy="585.38" r="4.55" fill="url(#dotGrad)" opacity="0.663"></circle><circle cx="639.88" cy="101.85" r="4.66" fill="url(#dotGrad)" opacity="0.681"></circle><circle cx="843.70" cy="259.07" r="4.69" fill="url(#dotGrad)" opacity="0.686"></circle><circle cx="552.39" cy="911.86" r="4.75" fill="url(#dotGrad)" opacity="0.696"></circle><circle cx="88.91" cy="540.82" r="4.77" fill="url(#dotGrad)" opacity="0.700"></circle><circle cx="121.65" cy="336.70" r="4.78" fill="url(#dotGrad)" opacity="0.702"></circle><circle cx="806.41" cy="769.67" r="4.83" fill="url(#dotGrad)" opacity="0.710"></circle><circle cx="759.41" cy="186.19" r="4.84" fill="url(#dotGrad)" opacity="0.712"></circle><circle cx="214.27" cy="213.07" r="4.87" fill="url(#dotGrad)" opacity="0.717"></circle><circle cx="887.77" cy="392.53" r="4.89" fill="url(#dotGrad)" opacity="0.721"></circle><circle cx="315.32" cy="857.43" r="4.90" fill="url(#dotGrad)" opacity="0.721"></circle><circle cx="494.80" cy="99.37" r="4.91" fill="url(#dotGrad)" opacity="0.724"></circle><circle cx="388.32" cy="119.40" r="4.96" fill="url(#dotGrad)" opacity="0.732"></circle><circle cx="634.29" cy="871.28" r="4.98" fill="url(#dotGrad)" opacity="0.735"></circle><circle cx="439.20" cy="889.93" r="4.98" fill="url(#dotGrad)" opacity="0.735"></circle><circle cx="126.73" cy="626.11" r="4.98" fill="url(#dotGrad)" opacity="0.736"></circle><circle cx="722.24" cy="823.68" r="5.00" fill="url(#dotGrad)" opacity="0.739"></circle><circle cx="862.11" cy="649.22" r="5.01" fill="url(#dotGrad)" opacity="0.740"></circle><circle cx="890.51" cy="522.93" r="5.01" fill="url(#dotGrad)" opacity="0.741"></circle><circle cx="297.59" cy="171.33" r="5.06" fill="url(#dotGrad)" opacity="0.750"></circle><circle cx="243.95" cy="785.71" r="5.09" fill="url(#dotGrad)" opacity="0.753"></circle><circle cx="124.88" cy="425.34" r="5.10" fill="url(#dotGrad)" opacity="0.755"></circle><circle cx="179.66" cy="708.13" r="5.10" fill="url(#dotGrad)" opacity="0.756"></circle><circle cx="827.59" cy="324.46" r="5.20" fill="url(#dotGrad)" opacity="0.771"></circle><circle cx="665.24" cy="168.67" r="5.21" fill="url(#dotGrad)" opacity="0.773"></circle><circle cx="568.23" cy="140.00" r="5.24" fill="url(#dotGrad)" opacity="0.779"></circle><circle cx="191.23" cy="303.80" r="5.25" fill="url(#dotGrad)" opacity="0.780"></circle><circle cx="753.20" cy="250.85" r="5.34" fill="url(#dotGrad)" opacity="0.794"></circle><circle cx="513.82" cy="853.66" r="5.35" fill="url(#dotGrad)" opacity="0.795"></circle><circle cx="784.85" cy="708.81" r="5.35" fill="url(#dotGrad)" opacity="0.796"></circle><circle cx="149.84" cy="512.41" r="5.37" fill="url(#dotGrad)" opacity="0.800"></circle><circle cx="376.92" cy="825.41" r="5.39" fill="url(#dotGrad)" opacity="0.803"></circle><circle cx="843.47" cy="457.69" r="5.41" fill="url(#dotGrad)" opacity="0.805"></circle><circle cx="437.79" cy="165.21" r="5.45" fill="url(#dotGrad)" opacity="0.812"></circle><circle cx="826.50" cy="586.12" r="5.47" fill="url(#dotGrad)" opacity="0.815"></circle><circle cx="695.72" cy="763.10" r="5.54" fill="url(#dotGrad)" opacity="0.826"></circle><circle cx="602.47" cy="811.46" r="5.54" fill="url(#dotGrad)" opacity="0.826"></circle><circle cx="273.17" cy="265.05" r="5.55" fill="url(#dotGrad)" opacity="0.828"></circle><circle cx="192.16" cy="596.86" r="5.57" fill="url(#dotGrad)" opacity="0.832"></circle><circle cx="198.90" cy="392.98" r="5.59" fill="url(#dotGrad)" opacity="0.835"></circle><circle cx="310.82" cy="754.26" r="5.61" fill="url(#dotGrad)" opacity="0.838"></circle><circle cx="358.90" cy="219.29" r="5.63" fill="url(#dotGrad)" opacity="0.840"></circle><circle cx="247.42" cy="677.77" r="5.66" fill="url(#dotGrad)" opacity="0.846"></circle><circle cx="783.45" cy="388.52" r="5.69" fill="url(#dotGrad)" opacity="0.850"></circle><circle cx="641.37" cy="232.74" r="5.70" fill="url(#dotGrad)" opacity="0.852"></circle><circle cx="529.02" cy="203.88" r="5.73" fill="url(#dotGrad)" opacity="0.856"></circle><circle cx="458.75" cy="788.81" r="5.76" fill="url(#dotGrad)" opacity="0.862"></circle><circle cx="744.42" cy="645.07" r="5.80" fill="url(#dotGrad)" opacity="0.868"></circle><circle cx="714.56" cy="314.14" r="5.80" fill="url(#dotGrad)" opacity="0.868"></circle><circle cx="776.08" cy="519.86" r="5.84" fill="url(#dotGrad)" opacity="0.874"></circle><circle cx="229.05" cy="479.77" r="5.87" fill="url(#dotGrad)" opacity="0.878"></circle><circle cx="284.98" cy="355.24" r="5.93" fill="url(#dotGrad)" opacity="0.888"></circle><circle cx="552.76" cy="746.73" r="5.96" fill="url(#dotGrad)" opacity="0.893"></circle><circle cx="650.68" cy="698.79" r="5.97" fill="url(#dotGrad)" opacity="0.895"></circle><circle cx="460.01" cy="260.91" r="6.01" fill="url(#dotGrad)" opacity="0.900"></circle><circle cx="396.26" cy="718.43" r="6.01" fill="url(#dotGrad)" opacity="0.900"></circle><circle cx="275.65" cy="563.37" r="6.05" fill="url(#dotGrad)" opacity="0.906"></circle><circle cx="375.10" cy="311.34" r="6.07" fill="url(#dotGrad)" opacity="0.910"></circle><circle cx="585.13" cy="293.05" r="6.08" fill="url(#dotGrad)" opacity="0.912"></circle><circle cx="715.47" cy="449.54" r="6.09" fill="url(#dotGrad)" opacity="0.913"></circle><circle cx="333.24" cy="643.11" r="6.10" fill="url(#dotGrad)" opacity="0.914"></circle><circle cx="690.75" cy="577.73" r="6.15" fill="url(#dotGrad)" opacity="0.922"></circle><circle cx="649.82" cy="374.29" r="6.19" fill="url(#dotGrad)" opacity="0.927"></circle><circle cx="320.14" cy="441.89" r="6.21" fill="url(#dotGrad)" opacity="0.931"></circle><circle cx="493.22" cy="677.28" r="6.24" fill="url(#dotGrad)" opacity="0.936"></circle><circle cx="593.99" cy="630.38" r="6.29" fill="url(#dotGrad)" opacity="0.943"></circle><circle cx="506.79" cy="348.44" r="6.31" fill="url(#dotGrad)" opacity="0.947"></circle><circle cx="415.52" cy="398.17" r="6.36" fill="url(#dotGrad)" opacity="0.954"></circle><circle cx="370.80" cy="524.66" r="6.36" fill="url(#dotGrad)" opacity="0.954"></circle><circle cx="629.30" cy="506.20" r="6.37" fill="url(#dotGrad)" opacity="0.955"></circle><circle cx="430.52" cy="603.21" r="6.38" fill="url(#dotGrad)" opacity="0.956"></circle><circle cx="565.85" cy="429.95" r="6.43" fill="url(#dotGrad)" opacity="0.964"></circle><circle cx="531.80" cy="557.58" r="6.47" fill="url(#dotGrad)" opacity="0.970"></circle><circle cx="470.18" cy="480.21" r="6.49" fill="url(#dotGrad)" opacity="0.973"></circle></g>
</svg>